<?xml version="1.0" encoding="utf-8"?>
<!-- Generator: Adobe Illustrator 22.1.0, SVG Export Plug-In . SVG Version: 6.00 Build 0)  -->
<svg version="1.1" id="Layer_1" xmlns="http://www.w3.org/2000/svg" xmlns:xlink="http://www.w3.org/1999/xlink" x="0px" y="0px"
	 viewBox="0 0 285 45" style="enable-background:new 0 0 285 45;" xml:space="preserve">
<style type="text/css">
	.st0{fill:#FFFFFF;}
</style>
<g id="Canvas">
	<g id="CenarioVR_-_White">
		<path class="st0" d="M225.5,26.2h27.1l13.1,18h3.9L256,25.6c7-1,12.1-5.1,12.1-12.4v-0.1c0-3.1-1.2-6-3.1-8.1
			c-2.5-2.6-6.5-4.3-11.6-4.3h-17.3L225.5,26.2z M229.2,23.2l8.1-19.5h15.9c7.5,0,11.8,3.7,11.8,9.5v0.1c0,6.3-5.1,9.9-12,9.9H229.2
			z"/>
		<path class="st0" d="M218.1,44.5h2.7l18.1-43.7h-3.2l-16.2,39.9l-16.1-40H200L218.1,44.5z"/>
		<path class="st0" d="M21.1,44.9c8,0,12.7-3,16.9-7.8L32.3,31c-3.2,3.1-6.1,5.1-10.8,5.1c-7.1,0-12-6.2-12-13.6v-0.1
			c0-7.4,5-13.5,12-13.5c4.1,0,7.4,1.9,10.5,4.9l5.8-7C33.9,2.7,29.3,0,21.5,0C8.8,0,0,10.1,0,22.4v0.1C0,35,9,44.9,21.1,44.9z"/>
		<path class="st0" d="M54.6,44.9c5.7,0,10-2.4,12.9-6.2l-5.1-4.8c-2.5,2.4-4.7,3.4-7.7,3.4c-4,0-6.8-2.2-7.7-6.5h22
			c0.1-0.9,0.1-1.7,0.1-2.5c0-9.4-4.8-18-15.4-18c-9.2,0-15.6,7.8-15.6,17.3v0.1C38.1,37.9,45.2,44.9,54.6,44.9z M46.9,24.9
			c0.7-4.3,3.1-7.1,6.8-7.1c3.8,0,6.1,2.9,6.7,7.1H46.9z"/>
		<path class="st0" d="M71.7,44.1h9V25.6c0-4.5,2.2-6.8,5.6-6.8s5.4,2.3,5.4,6.8v18.5h9V22.6c0-7.6-3.9-12.3-10.7-12.3
			c-4.5,0-7.2,2.5-9.2,5.3v-4.7h-9v33.2H71.7z"/>
		<path class="st0" d="M113.2,44.8c4.4,0,7.4-1.7,9.5-4.2v3.6h8.7V24.9c0-4.5-1.1-8.1-3.4-10.6c-2.2-2.4-5.8-3.7-10.7-3.7
			c-5.4,0-8.8,1.1-12.3,2.7l2.2,7.2c2.9-1.1,5.3-1.8,8.7-1.8c4.5,0,6.8,2.2,6.8,6.1v0.6c-2.2-0.8-4.5-1.4-7.7-1.4
			c-7.5,0-12.7,3.3-12.7,10.6v0.1C102.4,41.2,107.3,44.8,113.2,44.8z M115.9,38.3c-2.9,0-4.9-1.5-4.9-4v-0.1c0-3,2.4-4.6,6.2-4.6
			c2.2,0,4.2,0.5,5.7,1.2v1.7C122.9,35.8,120.1,38.3,115.9,38.3z"/>
		<path class="st0" d="M135,44.1h9V31.9c0-7.9,3.7-11.7,9.6-11.7h0.5v-9.9c-5.3-0.2-8.2,2.7-10.1,7.3v-6.7h-9V44.1z"/>
		<path class="st0" d="M155.9,44.1h9V10.3h-9V44.1z"/>
		<path class="st0" d="M184.6,44.9c9.8,0,17.1-7.8,17.1-17.3v-0.1c0-9.5-7.2-17.2-17-17.2s-17.1,7.8-17.1,17.3v0.1
			C167.6,37.3,174.8,44.9,184.6,44.9z M184.7,36.8c-4.9,0-8.3-4.3-8.3-9.2v-0.1c0-4.9,3.1-9.1,8.2-9.1c4.9,0,8.3,4.3,8.3,9.2v0.1
			C192.9,32.6,189.9,36.8,184.7,36.8z"/>
	</g>
</g>
<g>
	<path class="st0" d="M271.6,6.5c0-1.1,0.3-2.2,0.8-3.1s1.2-1.7,2.1-2.3c0.9-0.6,1.9-0.8,3-0.8s2.1,0.3,3,0.8
		c0.9,0.6,1.6,1.3,2.1,2.3s0.8,2,0.8,3.1c0,1.1-0.2,2.1-0.7,3.1s-1.2,1.7-2.1,2.3c-0.9,0.6-1.9,0.9-3,0.9c-1.1,0-2.1-0.3-3-0.9
		c-0.9-0.6-1.6-1.3-2.1-2.3C271.8,8.7,271.6,7.6,271.6,6.5z M272.5,6.5c0,1,0.2,1.8,0.7,2.6c0.4,0.8,1,1.4,1.8,1.9s1.6,0.7,2.5,0.7
		c0.9,0,1.7-0.2,2.5-0.7s1.4-1.1,1.8-1.9s0.7-1.7,0.7-2.6c0-0.9-0.2-1.8-0.7-2.6c-0.4-0.8-1-1.4-1.8-1.9c-0.8-0.5-1.6-0.7-2.5-0.7
		c-0.9,0-1.7,0.2-2.5,0.7c-0.8,0.5-1.4,1.1-1.8,1.9C272.8,4.7,272.5,5.6,272.5,6.5z M276.3,7.2V10h-1.2v-7h2.3c0.8,0,1.5,0.2,2,0.5
		c0.5,0.4,0.7,0.9,0.7,1.6c0,0.7-0.4,1.2-1.1,1.6c0.7,0.3,1,0.8,1,1.7v0.5c0,0.5,0,0.8,0.1,1V10h-1.2c-0.1-0.2-0.1-0.6-0.1-1.1
		c0-0.5,0-0.8,0-0.9c-0.1-0.5-0.5-0.8-1.1-0.8H276.3z M276.3,6.1h1.3c0.4,0,0.7-0.1,1-0.3c0.2-0.2,0.4-0.4,0.4-0.7
		c0-0.4-0.1-0.7-0.3-0.9C278.3,4.1,278,4,277.4,4h-1.1V6.1z"/>
</g>
</svg>
